PathFileType	4	(X/Y/Z)	SUBJ82_0_static_RCNL2025.trc
DataRate	CameraRate	NumFrames	NumMarkers	Units	OrigDataRate	OrigDataStartFrame	OrigNumFrames
100	100	11	25	mm	100	1	82
Frame#	Time	R_Shoulder			L_Shoulder			C7			J_Notch			R_Elbow			L_Elbow			R_Wrist			L_Wrist			R_Asis			L_Asis			Sacral			Thoracic			Sternum			R_Thigh_Lateral			R_Knee_Lateral			R_Shank_Lateral			R_Ankle_Lateral			R_Heel			R_Toe			L_Thigh_Lateral			L_Knee_Lateral			L_Shank_Lateral			L_Ankle_Lateral			L_Heel			L_Toe		
		X1	Y1	Z1	X2	Y2	Z2	X3	Y3	Z3	X4	Y4	Z4	X5	Y5	Z5	X6	Y6	Z6	X7	Y7	Z7	X8	Y8	Z8	X9	Y9	Z9	X10	Y10	Z10	X11	Y11	Z11	X12	Y12	Z12	X13	Y13	Z13	X14	Y14	Z14	X15	Y15	Z15	X16	Y16	Z16	X17	Y17	Z17	X18	Y18	Z18	X19	Y19	Z19	X20	Y20	Z20	X21	Y21	Z21	X22	Y22	Z22	X23	Y23	Z23	X24	Y24	Z24	X25	Y25	Z25
1	0.00000000	-284.275970	1454.604370	-2.427530	-259.460266	1472.611572	-392.535065	-326.611603	1526.659058	-194.591980	-193.428665	1423.048584	-194.154526	-311.620056	1186.462769	188.478333	-276.573212	1203.674683	-596.330200	-235.810165	969.936707	313.308289	-210.993484	983.429077	-713.694183	-191.773300	1000.663757	-56.511356	-181.782990	1007.320312	-326.643677	-367.262848	1029.120728	-207.560181	-398.292938	1290.410400	-212.419769	-161.320404	1243.213013	-197.180481	-295.585876	572.929016	-22.447592	-306.118134	487.160858	-72.025398	-338.281342	265.397186	-11.062449	-341.070526	79.601875	-105.368217	-383.295624	46.372311	-148.079727	-204.149521	51.381077	-124.690018	-314.606964	572.893738	-372.127014	-320.994019	497.086731	-328.550659	-331.125305	265.529938	-365.571625	-335.387390	74.081200	-298.491241	-374.817749	52.142258	-246.399506	-192.131363	46.208881	-269.093933
2	0.01000000	-284.061432	1454.639771	-2.494313	-259.225647	1472.584717	-392.602631	-326.429718	1526.719116	-194.617264	-193.316544	1423.027222	-194.182190	-311.568817	1186.547974	188.560120	-276.467377	1203.607544	-596.297791	-235.719604	970.074524	313.431152	-210.901367	983.454895	-713.703308	-191.585083	1000.630859	-56.508076	-181.584610	1007.287537	-326.641571	-367.007019	1029.139404	-207.630890	-398.120941	1290.450195	-212.444336	-161.092651	1243.228516	-197.244659	-295.044403	572.809326	-22.253714	-306.048065	487.237579	-72.066673	-338.080414	265.355743	-11.099982	-341.217010	79.603523	-105.363754	-383.271179	46.444191	-148.114532	-204.149521	51.381077	-124.690018	-314.436249	573.018311	-372.252075	-320.819580	497.037079	-328.285858	-331.044037	265.548676	-365.582642	-335.348053	74.084793	-298.595947	-374.871674	52.174259	-246.347137	-192.114166	46.225906	-269.089294
3	0.02000000	-283.787140	1454.902100	-2.588467	-259.051056	1472.609619	-392.607513	-326.161926	1526.651245	-194.697418	-193.131790	1422.998047	-194.125961	-311.031158	1186.543335	188.456421	-276.354919	1203.614136	-596.308228	-235.611687	970.172058	313.512436	-210.808228	983.426819	-713.667267	-191.466629	1000.683655	-56.508778	-181.532623	1007.208740	-326.646271	-366.843475	1029.180298	-207.632431	-397.873322	1290.387451	-212.499084	-160.980621	1243.186646	-197.183899	-290.060455	574.578979	-20.910004	-302.042023	488.914398	-70.904587	-338.152252	265.401520	-11.070632	-340.958984	79.624710	-105.470062	-383.198181	46.408485	-148.163361	-204.143051	51.373692	-124.702225	-314.297180	572.970215	-372.305664	-320.693970	497.020813	-328.327881	-330.987823	265.568634	-365.522583	-335.361115	74.073738	-298.534943	-374.841858	52.279030	-246.368668	-192.114334	46.229187	-269.088776
4	0.03000000	-283.548187	1454.931641	-2.654093	-258.865997	1472.557495	-392.570465	-326.171844	1526.718506	-194.740036	-193.039429	1422.983032	-194.231827	-310.833527	1186.587891	188.439545	-276.140411	1203.542358	-596.313660	-235.470039	970.227051	313.529526	-210.683296	983.372437	-713.754456	-191.313156	1000.665161	-56.487591	-181.374878	1007.253357	-326.715912	-366.639740	1029.135864	-207.676682	-397.608490	1290.434937	-212.585648	-160.887970	1243.151123	-197.104248	-289.438629	574.831482	-20.932659	-301.346191	488.891693	-70.942657	-338.605255	265.509705	-10.835340	-341.161896	79.487282	-105.403702	-383.185150	46.396503	-148.168854	-204.130447	51.349491	-124.728294	-314.268860	572.900940	-372.132874	-320.591522	497.035248	-328.323212	-330.967438	265.567871	-365.567383	-335.319214	74.074402	-298.537750	-374.845306	52.181660	-246.339722	-192.116302	46.179535	-269.117523
5	0.04000000	-283.444244	1454.931396	-2.644301	-258.653534	1472.560913	-392.597015	-326.073517	1526.834961	-194.819244	-192.944351	1422.931152	-194.197342	-310.770721	1186.617432	188.529449	-275.989075	1203.500854	-596.305969	-235.398628	970.308899	313.667740	-210.520279	983.328857	-713.694031	-191.137238	1000.639038	-56.491329	-181.120071	1007.230957	-326.761230	-366.413544	1029.096191	-207.698471	-397.412994	1290.365112	-212.623505	-160.690674	1243.161255	-197.136887	-289.676910	574.845886	-20.932371	-301.488525	488.855804	-70.959076	-338.647278	265.461700	-10.843942	-341.257477	79.493172	-105.368530	-383.186676	46.380798	-148.170624	-204.208374	51.339344	-124.664307	-314.134155	572.907837	-372.122223	-320.413208	497.029877	-328.333679	-330.962036	265.567535	-365.596466	-335.341522	74.071884	-298.562927	-374.869598	52.169945	-246.346573	-192.140808	46.159966	-269.119965
6	0.05000000	-283.337311	1454.962402	-2.687330	-258.449829	1472.502930	-392.629791	-325.946625	1526.874146	-194.733215	-192.780106	1422.860596	-194.167358	-310.633911	1186.654053	188.533035	-275.845947	1203.488525	-596.272705	-235.261780	970.408905	313.736374	-210.359612	983.256775	-713.705017	-190.990479	1000.595032	-56.458035	-180.952347	1007.229980	-326.815094	-366.297211	1029.136108	-207.794403	-397.184326	1290.399658	-212.669449	-160.593445	1243.057251	-197.050018	-289.772186	574.830505	-20.904715	-301.549957	488.873322	-70.959419	-337.957855	265.393127	-11.149743	-341.135284	79.502045	-105.399742	-383.187256	46.380150	-148.170471	-204.207932	51.325474	-124.661751	-314.027771	573.005676	-372.283417	-320.362061	496.992859	-328.282043	-330.836243	265.524811	-365.592529	-335.293945	74.064568	-298.579681	-374.796082	52.114044	-246.407806	-192.078323	46.191998	-269.186523
7	0.06000000	-283.191986	1454.961426	-2.676116	-258.334534	1472.483154	-392.571533	-325.362579	1526.674438	-194.818573	-192.511688	1422.851929	-194.131699	-310.545288	1186.763916	188.621719	-275.678741	1203.431396	-596.283813	-235.112648	970.457703	313.820236	-210.290657	983.203125	-713.661896	-190.809906	1000.556824	-56.469585	-180.782013	1007.198853	-326.740479	-366.125336	1029.078735	-207.805252	-397.038086	1290.392578	-212.647964	-160.509689	1243.007812	-196.992340	-289.592560	574.870422	-20.900562	-301.428406	488.901611	-71.022942	-337.888641	265.412994	-11.056708	-340.937622	79.616928	-105.467194	-383.190094	46.398907	-148.165955	-204.119354	51.328857	-124.723991	-313.780487	572.987671	-372.344543	-320.140900	497.073975	-328.333282	-330.723755	265.570740	-365.624939	-335.283417	74.088448	-298.614380	-374.808289	52.229710	-246.370682	-192.063522	46.241970	-269.148651
8	0.07000000	-283.017303	1455.008057	-2.655286	-258.070465	1472.497925	-392.539551	-325.557098	1526.961304	-194.788025	-192.287979	1422.858765	-194.173416	-310.379974	1186.787964	188.595215	-275.529297	1203.421631	-596.265747	-235.025375	970.566040	313.924301	-210.163712	983.166840	-713.679016	-190.631638	1000.588440	-56.454319	-180.551987	1007.214844	-326.786530	-365.962494	1029.127686	-207.801300	-396.868835	1290.329590	-212.653915	-160.339645	1242.970215	-196.943481	-289.260437	574.696899	-21.268736	-301.381744	488.888489	-71.066025	-337.846283	265.383179	-11.069510	-341.116241	79.565186	-105.433922	-383.193878	46.419647	-148.161057	-204.106384	51.326988	-124.732269	-313.609039	572.976257	-372.347473	-320.059509	497.037292	-328.322174	-330.696228	265.544983	-365.645599	-335.261871	74.078247	-298.620483	-374.761536	52.191414	-246.418411	-192.056091	46.258419	-269.157227
9	0.08000000	-282.964386	1455.003540	-2.688239	-257.882233	1472.411011	-392.568146	-325.416962	1526.994751	-194.756989	-192.131302	1422.718628	-194.229401	-310.174866	1186.727905	188.569611	-275.342926	1203.373169	-596.207031	-234.939384	970.574768	313.899872	-210.109276	983.091644	-713.665985	-190.485504	1000.519104	-56.488132	-180.374573	1007.179260	-326.817444	-365.788116	1029.151367	-207.824173	-396.695221	1290.365723	-212.678741	-160.183380	1242.958862	-196.937012	-289.308105	574.836121	-21.104618	-301.315033	488.869751	-70.981537	-338.454895	265.410034	-10.981745	-341.087799	79.584175	-105.426353	-383.244019	46.511875	-148.265778	-204.119614	51.338123	-124.724922	-313.529968	573.027100	-372.385681	-319.906982	497.054474	-328.300476	-330.563660	265.582855	-365.690308	-335.281006	74.085808	-298.594849	-374.804047	52.251801	-246.378098	-192.048691	46.198376	-269.094971
10	0.09000000	-282.718414	1455.038452	-2.676311	-257.726135	1472.487671	-392.548431	-325.186035	1526.988525	-194.781189	-192.029297	1422.686401	-194.164246	-310.093170	1186.833984	188.659363	-275.135315	1203.301270	-596.184204	-234.784119	970.637299	313.951675	-209.913643	983.037872	-713.578033	-190.382889	1000.541321	-56.422031	-180.132233	1007.164429	-326.757843	-365.608093	1029.077026	-207.834320	-396.541351	1290.424927	-212.678452	-160.053253	1242.963745	-196.902908	-289.051575	574.716309	-21.281189	-301.230865	488.940308	-71.043770	-337.873596	265.503815	-11.145424	-340.944550	79.646523	-105.446259	-383.203796	46.431782	-148.169617	-204.103729	51.336956	-124.754654	-313.357544	573.042969	-372.401611	-319.812683	497.048340	-328.376434	-330.515411	265.580566	-365.685608	-335.227020	74.116814	-298.590607	-374.712433	52.192448	-246.459595	-192.069656	46.175945	-269.154999
11	0.10000000	-282.539490	1455.047363	-2.675222	-257.509247	1472.461426	-392.534790	-324.997925	1526.985107	-194.760574	-191.824310	1422.721069	-194.166489	-309.880341	1186.836426	188.658493	-274.980103	1203.275024	-596.063782	-234.617477	970.696594	314.052200	-209.776932	983.001373	-713.485565	-190.209625	1000.510376	-56.422874	-179.969849	1007.217834	-326.873535	-365.468658	1029.175049	-207.913528	-396.414856	1290.394043	-212.650482	-159.871277	1242.926392	-196.907440	-289.180939	574.810181	-21.072565	-301.154663	488.907440	-71.104736	-337.806030	265.380188	-11.259415	-340.918610	79.641319	-105.464218	-383.190948	46.415623	-148.157227	-204.142212	51.377277	-124.705124	-313.181519	573.043823	-372.410004	-319.681061	497.050079	-328.319061	-330.480225	265.597504	-365.619720	-335.177856	74.108070	-298.562958	-374.773712	52.235008	-246.388504	-192.055084	46.282146	-269.159729
